# Blender v3.1.2 OBJ File: 'city.blend'
# www.blender.org
o Plane.072_Plane.018
v 0.006903 -0.000000 -0.037537
v 0.033721 -0.000000 -0.024799
v -0.016974 0.427278 -0.048878
v -0.029029 0.414833 -0.054604
v 0.010996 0.083103 -0.035593
v -0.007262 0.311400 -0.044265
v 0.007988 0.197478 -0.037022
v 0.020726 0.312435 -0.030971
v 0.043932 0.084321 -0.019949
v 0.042903 0.198769 -0.020438
vt 0.107279 0.802349
vt 0.136170 0.993420
vt 0.067551 1.000000
vt 0.022735 0.807615
vt 0.031554 0.274685
vt 0.103398 0.270210
vt 0.089626 0.537258
vt 0.000000 0.542841
vt 0.102564 0.000000
vt 0.136171 0.025805
vn -0.4290 -0.0000 0.9033
s 1
f 5/1/1 1/2/1 2/3/1 9/4/1
f 8/5/1 6/6/1 7/7/1 10/8/1
f 10/8/1 7/7/1 5/1/1 9/4/1
f 8/5/1 3/9/1 4/10/1 6/6/1
o Plane.075_Plane.023
v -0.002735 -0.000000 0.005834
v 0.001300 -0.000000 -0.009756
v -0.006329 0.231760 0.019714
v -0.008143 0.225010 0.026722
v -0.002120 0.045076 0.003455
v -0.004867 0.168906 0.014068
v -0.002572 0.107114 0.005203
v -0.000655 0.169468 -0.002202
v 0.002837 0.045737 -0.015692
v 0.002682 0.107814 -0.015094
vt 0.243449 0.802349
vt 0.272341 0.993420
vt 0.203721 1.000000
vt 0.158905 0.807615
vt 0.167724 0.274685
vt 0.239569 0.270210
vt 0.225796 0.537258
vt 0.136171 0.542841
vt 0.238735 0.000000
vt 0.272341 0.025805
vn 0.9681 -0.0000 0.2506
s 1
f 15/11/2 11/12/2 12/13/2 19/14/2
f 18/15/2 16/16/2 17/17/2 20/18/2
f 20/18/2 17/17/2 15/11/2 19/14/2
f 18/15/2 13/19/2 14/20/2 16/16/2
o Plane.076_Plane.024
v -0.060541 -0.000000 -0.009516
v -0.052229 -0.000000 -0.027796
v -0.067941 0.289001 0.006759
v -0.071678 0.280583 0.014976
v -0.059272 0.056209 -0.012306
v -0.064931 0.210624 0.000139
v -0.060204 0.133569 -0.010256
v -0.056256 0.211324 -0.018939
v -0.049064 0.057033 -0.034757
v -0.049383 0.134443 -0.034056
vt 0.379620 0.802349
vt 0.408512 0.993420
vt 0.339892 1.000000
vt 0.295076 0.807615
vt 0.303895 0.274685
vt 0.375739 0.270210
vt 0.361967 0.537258
vt 0.272341 0.542841
vt 0.374905 0.000000
vt 0.408512 0.025805
vn 0.9103 -0.0000 0.4139
s 1
f 25/21/3 21/22/3 22/23/3 29/24/3
f 28/25/3 26/26/3 27/27/3 30/28/3
f 30/28/3 27/27/3 25/21/3 29/24/3
f 28/25/3 23/29/3 24/30/3 26/26/3
o Plane.077_Plane.025
v 0.051094 -0.000000 0.034147
v 0.035439 -0.000000 0.030371
v 0.065032 0.231760 0.037508
v 0.072070 0.225010 0.039205
v 0.048705 0.045076 0.033570
v 0.059363 0.168906 0.036141
v 0.050461 0.107114 0.033994
v 0.043025 0.169468 0.032201
v 0.029479 0.045737 0.028934
v 0.030079 0.107814 0.029078
vt 0.515791 0.802349
vt 0.544682 0.993420
vt 0.476062 1.000000
vt 0.431246 0.807615
vt 0.440065 0.274685
vt 0.511910 0.270210
vt 0.498137 0.537258
vt 0.408512 0.542841
vt 0.511076 0.000000
vt 0.544682 0.025805
vn 0.2345 -0.0000 -0.9721
s 1
f 35/31/4 31/32/4 32/33/4 39/34/4
f 38/35/4 36/36/4 37/37/4 40/38/4
f 40/38/4 37/37/4 35/31/4 39/34/4
f 38/35/4 33/39/4 34/40/4 36/36/4
