<svg width="16" height="16" viewBox="0 0 16 16" fill="none" xmlns="http://www.w3.org/2000/svg">
<path fill-rule="evenodd" clip-rule="evenodd" d="M10 2C10 1.44772 9.55229 1 9 1H7C6.44772 1 6 1.44772 6 2V5C6 5.55228 5.55228 6 5 6H2C1.44772 6 1 6.44772 1 7V9C1 9.55229 1.44772 10 2 10H5C5.55228 10 6 10.4477 6 11V14C6 14.5523 6.44772 15 7 15H9C9.55229 15 10 14.5523 10 14V11C10 10.4477 10.4477 10 11 10H14C14.5523 10 15 9.55229 15 9V7C15 6.44772 14.5523 6 14 6H11C10.4477 6 10 5.55228 10 5V2ZM14 8C14 8.55228 13.5523 9 13 9C12.4477 9 12 8.55228 12 8C12 7.44772 12.4477 7 13 7C13.5523 7 14 7.44772 14 8ZM3 9C3.55228 9 4 8.55228 4 8C4 7.44772 3.55228 7 3 7C2.44772 7 2 7.44772 2 8C2 8.55228 2.44772 9 3 9ZM9 3C9 3.55228 8.55228 4 8 4C7.44772 4 7 3.55228 7 3C7 2.44772 7.44772 2 8 2C8.55228 2 9 2.44772 9 3ZM8 14C8.55228 14 9 13.5523 9 13C9 12.4477 8.55228 12 8 12C7.44772 12 7 12.4477 7 13C7 13.5523 7.44772 14 8 14Z" fill="#CEA4F1"/>
</svg>
