<svg width="16" height="16" viewBox="0 0 16 16" fill="none" xmlns="http://www.w3.org/2000/svg">
<path d="M9.15385 6.57246C10.4983 6.10812 11.4615 4.85522 11.4615 3.38248C11.4615 1.5144 9.91176 2.85592e-05 8 2.85592e-05C6.08825 2.85592e-05 4.53846 1.5144 4.53846 3.38248C4.53846 4.85522 5.5017 6.10812 6.84615 6.57246V8.83392C6.84615 9.33207 7.25943 9.7359 7.76923 9.7359H8.23077C8.74057 9.7359 9.15385 9.33207 9.15385 8.83392V6.57246Z" fill="#A5B7F3"/>
<path d="M6.15385 7.67527L3.25921 9.04068C2.91135 9.20477 2.91135 9.68889 3.25921 9.85297L7.79936 11.9946C7.92612 12.0544 8.07388 12.0544 8.20064 11.9946L12.7408 9.85297C13.0887 9.68889 13.0887 9.20477 12.7408 9.04068L9.84615 7.67527V8.83391C9.84615 9.58114 9.22624 10.1869 8.46154 10.1869H7.53846C6.77376 10.1869 6.15385 9.58114 6.15385 8.83391V7.67527Z" fill="#A5B7F3"/>
<path d="M2.26089 13.3427C2.10138 13.2674 2 13.1096 2 12.9365V10.7287C2 10.3962 2.35572 10.178 2.66218 10.3225L7.84952 12.7694C7.94459 12.8143 8.05541 12.8143 8.15048 12.7694L13.3378 10.3225C13.6443 10.178 14 10.3962 14 10.7287V12.9365C14 13.1096 13.8986 13.2674 13.7391 13.3427L8.20064 15.9552C8.07388 16.0149 7.92612 16.0149 7.79936 15.9552L2.26089 13.3427Z" fill="#A5B7F3"/>
</svg>
