<svg width="16" height="16" viewBox="0 0 16 16" fill="#ffffff" xmlns="http://www.w3.org/2000/svg">
<path fill-rule="evenodd" clip-rule="evenodd" d="M9.40182 0.685839C8.70931 -0.228613 7.29069 -0.228613 6.59818 0.685839C6.15678 1.26871 5.37562 1.51272 4.66214 1.29059C3.54279 0.942098 2.3951 1.74373 2.39395 2.87485C2.39323 3.59583 1.91044 4.23465 1.19742 4.45811C0.0787691 4.80869 -0.359611 6.10575 0.331045 7.02149C0.771272 7.60519 0.771272 8.39481 0.331045 8.97851C-0.359611 9.89425 0.078769 11.1913 1.19742 11.5419C1.91044 11.7654 2.39323 12.4042 2.39395 13.1252C2.3951 14.2563 3.54279 15.0579 4.66214 14.7094C5.37562 14.4873 6.15678 14.7313 6.59818 15.3142C7.29069 16.2286 8.70931 16.2286 9.40182 15.3142C9.84322 14.7313 10.6244 14.4873 11.3379 14.7094C12.4572 15.0579 13.6049 14.2563 13.606 13.1252C13.6068 12.4042 14.0896 11.7654 14.8026 11.5419C15.9212 11.1913 16.3596 9.89425 15.669 8.97851C15.2287 8.39481 15.2287 7.60519 15.669 7.02149C16.3596 6.10575 15.9212 4.80869 14.8026 4.45811C14.0896 4.23465 13.6068 3.59583 13.606 2.87485C13.6049 1.74373 12.4572 0.942098 11.3379 1.29059C10.6244 1.51272 9.84322 1.26871 9.40182 0.685839ZM3.49606 8.52112C4.09324 8.52112 4.57735 8.05572 4.57735 7.48162C4.57735 6.90752 4.09324 6.44212 3.49606 6.44212C2.89889 6.44212 2.41478 6.90752 2.41478 7.48162C2.41478 8.05572 2.89889 8.52112 3.49606 8.52112ZM13.588 7.48162C13.588 8.05572 13.1039 8.52112 12.5068 8.52112C11.9096 8.52112 11.4255 8.05572 11.4255 7.48162C11.4255 6.90752 11.9096 6.44212 12.5068 6.44212C13.1039 6.44212 13.588 6.90752 13.588 7.48162ZM5.31292 10.2876L5.87975 10.8325C7.05073 11.9583 8.94927 11.9583 10.1202 10.8325L10.6871 10.2876L9.92597 9.5559L9.35913 10.1008C8.60851 10.8225 7.39149 10.8225 6.64087 10.1008L6.07403 9.5559L5.31292 10.2876Z"/>
</svg>
