<svg width="16" height="16" viewBox="0 0 16 16" fill="none" xmlns="http://www.w3.org/2000/svg">
<path fill-rule="evenodd" clip-rule="evenodd" d="M16 2.83333V3.66667C16 4.36232 15.6294 4.97503 15.0671 5.33333H6.95652C6.76442 5.33333 6.6087 5.48257 6.6087 5.66667C6.6087 5.85076 6.76442 6 6.95652 6H13.913V6.83333C13.913 8.76633 12.2779 10.3333 10.2609 10.3333C9.58852 10.3333 9.04348 10.8557 9.04348 11.5V13.3333H0V5.33333C0 2.38781 2.49163 0 5.56522 0H13.0435C14.6763 0 16 1.26853 16 2.83333ZM6.95652 2.66667C6.95652 3.21895 6.48934 3.66667 5.91304 3.66667C5.33675 3.66667 4.86957 3.21895 4.86957 2.66667C4.86957 2.11438 5.33675 1.66667 5.91304 1.66667C6.48934 1.66667 6.95652 2.11438 6.95652 2.66667ZM10.087 3.66667C10.6633 3.66667 11.1304 3.21895 11.1304 2.66667C11.1304 2.11438 10.6633 1.66667 10.087 1.66667C9.51066 1.66667 9.04348 2.11438 9.04348 2.66667C9.04348 3.21895 9.51066 3.66667 10.087 3.66667Z" fill="#A5B7F3"/>
<path d="M0 14V14.6667C0 15.403 0.622908 16 1.3913 16H7.65217C8.42057 16 9.04348 15.403 9.04348 14.6667V14H0Z" fill="#A5B7F3"/>
</svg>
