<svg width="16" height="16" viewBox="0 0 16 16" fill="none" xmlns="http://www.w3.org/2000/svg">
<path fill-rule="evenodd" clip-rule="evenodd" d="M8.96142 1.36961C8.68533 0.402185 7.31429 0.402187 7.0382 1.36961L6.35566 3.76125C6.20756 4.28021 5.67439 4.58803 5.15091 4.45681L2.73842 3.85209C1.76256 3.60748 1.07704 4.79483 1.77682 5.51765L3.50676 7.30456C3.88214 7.6923 3.88214 8.30795 3.50676 8.69569L1.77681 10.4826C1.07704 11.2054 1.76256 12.3928 2.73842 12.1482L5.15091 11.5434C5.67439 11.4122 6.20756 11.72 6.35566 12.239L7.0382 14.6306C7.31429 15.5981 8.68533 15.5981 8.96142 14.6306L9.64396 12.239C9.79206 11.72 10.3252 11.4122 10.8487 11.5434L13.2612 12.1482C14.2371 12.3928 14.9226 11.2054 14.2228 10.4826L12.4929 8.69569C12.1175 8.30795 12.1175 7.6923 12.4929 7.30456L14.2228 5.51764C14.9226 4.79483 14.2371 3.60748 13.2612 3.85209L10.8487 4.45681C10.3252 4.58803 9.79206 4.28021 9.64396 3.76125L8.96142 1.36961ZM7.99981 10.0001C9.10438 10.0001 9.99981 9.10469 9.99981 8.00012C9.99981 6.89556 9.10438 6.00012 7.99981 6.00012C6.89524 6.00012 5.99981 6.89556 5.99981 8.00012C5.99981 9.10469 6.89524 10.0001 7.99981 10.0001Z" fill="#CEA4F1"/>
</svg>
